<?xml version="1.0" encoding="UTF-8" standalone="no"?>
<!-- Created with Inkscape (http://www.inkscape.org/) -->

<svg
   width="108mm"
   height="108mm"
   viewBox="0 0 108 108"
   version="1.1"
   id="svg1"
   inkscape:version="1.4.3 (0d15f75042, 2025-12-25)"
   sodipodi:docname="clusters.svg"
   xmlns:inkscape="http://www.inkscape.org/namespaces/inkscape"
   xmlns:sodipodi="http://sodipodi.sourceforge.net/DTD/sodipodi-0.dtd"
   xmlns="http://www.w3.org/2000/svg"
   xmlns:svg="http://www.w3.org/2000/svg">
  <sodipodi:namedview
     id="namedview1"
     pagecolor="#ffffff"
     bordercolor="#000000"
     borderopacity="0.25"
     inkscape:showpageshadow="2"
     inkscape:pageopacity="0.0"
     inkscape:pagecheckerboard="0"
     inkscape:deskcolor="#d1d1d1"
     inkscape:document-units="mm"
     inkscape:zoom="0.6556678"
     inkscape:cx="25.165183"
     inkscape:cy="194.45823"
     inkscape:window-width="1299"
     inkscape:window-height="892"
     inkscape:window-x="20"
     inkscape:window-y="20"
     inkscape:window-maximized="0"
     inkscape:current-layer="svg1" />
  <defs
     id="defs1" />
  <path
     id="circle5"
     style="fill:#000000;fill-opacity:1;stroke:none;stroke-width:0.14741;stroke-opacity:1"
     d="m 88.546322,12.451607 a 16.412143,16.412143 0 0 0 -14.974437,9.694647 24.804049,24.804049 0 0 1 13.52323,22.090661 24.804049,24.804049 0 0 1 -0.01885,0.972935 16.412143,16.412143 0 0 0 1.470016,0.06605 A 16.412143,16.412143 0 0 0 104.95843,28.86375 16.412143,16.412143 0 0 0 88.546281,12.451602 Z" />
  <path
     id="circle3"
     style="fill:#000000;fill-opacity:1;stroke:none;stroke-width:0.197129;stroke-opacity:1"
     d="m 62.335389,22.200734 a 21.947824,21.947824 0 0 0 -19.370491,11.627984 31.060127,31.060127 0 0 1 19.372413,28.77683 31.060127,31.060127 0 0 1 -0.196709,3.490124 21.947824,21.947824 0 0 0 0.194787,9.33e-4 A 21.947824,21.947824 0 0 0 84.282854,44.148646 21.947824,21.947824 0 0 0 62.335389,22.200697 Z" />
  <path
     id="path1"
     style="fill:#000000;fill-opacity:1;stroke:none;stroke-width:0.24685;stroke-opacity:1"
     d="M 58.815643,62.495438 A 27.483503,27.483503 0 0 1 31.33214,89.978941 27.483503,27.483503 0 0 1 3.848637,62.495438 27.483503,27.483503 0 0 1 31.33214,35.011933 27.483503,27.483503 0 0 1 58.815643,62.495438 Z" />
  <g
     inkscape:label="Layer 1"
     inkscape:groupmode="layer"
     id="layer1"
     transform="translate(-58.310461,-68.63147)" />
</svg>
