<?xml version="1.0" encoding="UTF-8" standalone="no"?>
<!-- Created with Inkscape (http://www.inkscape.org/) -->

<svg
   width="108mm"
   height="108mm"
   viewBox="0 0 108 108"
   version="1.1"
   id="svg1"
   inkscape:version="1.4.3 (0d15f75042, 2025-12-25)"
   sodipodi:docname="clusters.svg"
   xmlns:inkscape="http://www.inkscape.org/namespaces/inkscape"
   xmlns:sodipodi="http://sodipodi.sourceforge.net/DTD/sodipodi-0.dtd"
   xmlns="http://www.w3.org/2000/svg"
   xmlns:svg="http://www.w3.org/2000/svg">
  <sodipodi:namedview
     id="namedview1"
     pagecolor="#ffffff"
     bordercolor="#000000"
     borderopacity="0.25"
     inkscape:showpageshadow="2"
     inkscape:pageopacity="0.0"
     inkscape:pagecheckerboard="0"
     inkscape:deskcolor="#d1d1d1"
     inkscape:document-units="mm"
     inkscape:zoom="1.3113356"
     inkscape:cx="146.41561"
     inkscape:cy="129.25753"
     inkscape:window-width="1588"
     inkscape:window-height="1120"
     inkscape:window-x="20"
     inkscape:window-y="20"
     inkscape:window-maximized="0"
     inkscape:current-layer="layer1" />
  <defs
     id="defs1" />
  <g
     inkscape:label="Layer 1"
     inkscape:groupmode="layer"
     id="layer1"
     transform="translate(-58.310461,-68.63147)">
    <g
       id="g1"
       transform="translate(-0.18668948,12.451606)">
      <path
         id="circle5"
         style="stroke-width:0.158"
         d="m 149.09271,68.63147 a 17.591169,17.591169 0 0 0 -16.05018,10.391097 26.585937,26.585937 0 0 1 14.49472,23.677623 26.585937,26.585937 0 0 1 -0.0202,1.04283 17.591169,17.591169 0 0 0 1.57562,0.0708 17.591169,17.591169 0 0 0 17.59117,-17.591176 17.591169,17.591169 0 0 0 -17.59117,-17.591174 z" />
      <path
         id="circle3"
         style="stroke-width:0.211291"
         d="m 120.99882,79.080961 a 23.524525,23.524525 0 0 0 -20.76204,12.463322 33.291443,33.291443 0 0 1 20.7641,30.844117 33.291443,33.291443 0 0 1 -0.21084,3.74085 23.524525,23.524525 0 0 0 0.20878,0.001 23.524525,23.524525 0 0 0 23.52414,-23.52467 23.524525,23.524525 0 0 0 -23.52414,-23.524659 z" />
      <circle
         style="fill:#000000;stroke-width:0.264583"
         id="path1"
         cx="87.768341"
         cy="122.27038"
         r="29.45788" />
    </g>
  </g>
</svg>
