<?xml version="1.0" encoding="UTF-8" standalone="no"?>
<!-- Created with Inkscape (http://www.inkscape.org/) -->

<svg
   width="108.24124mm"
   height="108.03705mm"
   viewBox="0 0 108.24124 108.03705"
   version="1.1"
   id="svg1"
   inkscape:version="1.4.4 (dcaf3e7d9e, 2026-05-05)"
   sodipodi:docname="settings.svg"
   xmlns:inkscape="http://www.inkscape.org/namespaces/inkscape"
   xmlns:sodipodi="http://sodipodi.sourceforge.net/DTD/sodipodi-0.dtd"
   xmlns="http://www.w3.org/2000/svg"
   xmlns:svg="http://www.w3.org/2000/svg">
  <sodipodi:namedview
     id="namedview1"
     pagecolor="#ffffff"
     bordercolor="#000000"
     borderopacity="0.25"
     inkscape:showpageshadow="2"
     inkscape:pageopacity="0.0"
     inkscape:pagecheckerboard="0"
     inkscape:deskcolor="#d1d1d1"
     inkscape:document-units="mm"
     inkscape:zoom="1.683254"
     inkscape:cx="194.86067"
     inkscape:cy="155.35386"
     inkscape:window-width="1196"
     inkscape:window-height="1198"
     inkscape:window-x="103"
     inkscape:window-y="103"
     inkscape:window-maximized="0"
     inkscape:current-layer="layer1" />
  <defs
     id="defs1" />
  <g
     inkscape:label="Layer 1"
     inkscape:groupmode="layer"
     id="layer1"
     transform="translate(-44.55078,-71.387071)">
    <g
       id="g20"
       transform="translate(0,12.922427)">
      <path
         id="rect1"
         style="stroke:#000000;stroke-width:4.36087;stroke-linecap:round;stroke-linejoin:round"
         d="M 93.030508,60.645079 H 104.3123 l 3.4871,10.307915 H 89.543409 Z"
         sodipodi:nodetypes="ccccc" />
      <path
         id="path5"
         style="stroke:#000000;stroke-width:4.36087;stroke-linecap:round;stroke-linejoin:round"
         d="M 93.030508,60.645079 H 104.3123 l 3.4871,10.307915 H 89.543409 Z"
         sodipodi:nodetypes="ccccc" />
      <path
         id="path10"
         style="stroke:#000000;stroke-width:4.36087;stroke-linecap:round;stroke-linejoin:round"
         d="M 93.030508,164.32126 H 104.3123 l 3.4871,-10.30791 H 89.543409 Z"
         sodipodi:nodetypes="ccccc" />
      <path
         id="path11"
         style="stroke:#000000;stroke-width:4.36087;stroke-linecap:round;stroke-linejoin:round"
         d="m 130.7259,71.355119 8.09591,7.857164 -4.67653,9.825629 -13.10066,-12.714321 z"
         sodipodi:nodetypes="ccccc" />
      <path
         id="path12"
         style="stroke:#000000;stroke-width:4.36087;stroke-linecap:round;stroke-linejoin:round"
         d="m 130.7259,71.355119 8.09591,7.857164 -4.67653,9.825629 -13.10066,-12.714321 z"
         sodipodi:nodetypes="ccccc" />
      <path
         id="path13"
         style="stroke:#000000;stroke-width:4.36087;stroke-linecap:round;stroke-linejoin:round"
         d="m 58.520994,145.75406 8.095912,7.85716 9.681281,-4.96847 -13.100659,-12.71432 z"
         sodipodi:nodetypes="ccccc" />
      <path
         id="path14"
         style="stroke:#000000;stroke-width:4.36087;stroke-linecap:round;stroke-linejoin:round"
         d="m 150.38681,105.81058 0.22478,11.27955 -10.23639,3.69179 -0.36373,-18.25237 z"
         sodipodi:nodetypes="ccccc" />
      <path
         id="path15"
         style="stroke:#000000;stroke-width:4.36087;stroke-linecap:round;stroke-linejoin:round"
         d="m 150.38681,105.81058 0.22478,11.27955 -10.23639,3.69179 -0.36373,-18.25237 z"
         sodipodi:nodetypes="ccccc" />
      <path
         id="path16"
         style="stroke:#000000;stroke-width:4.36087;stroke-linecap:round;stroke-linejoin:round"
         d="m 46.731212,107.87621 0.224779,11.27955 10.375341,3.28103 -0.363729,-18.25236 z"
         sodipodi:nodetypes="ccccc" />
      <path
         id="path17"
         style="stroke:#000000;stroke-width:4.36087;stroke-linecap:round;stroke-linejoin:round"
         d="m 140.91298,143.05532 -7.56439,8.37011 -9.98567,-4.32427 12.24056,-13.54437 z"
         sodipodi:nodetypes="ccccc" />
      <path
         id="path18"
         style="stroke:#000000;stroke-width:4.36087;stroke-linecap:round;stroke-linejoin:round"
         d="m 140.91298,143.05532 -7.56439,8.37011 -9.98567,-4.32427 12.24056,-13.54437 z"
         sodipodi:nodetypes="ccccc" />
      <path
         id="path19"
         style="stroke:#000000;stroke-width:4.36087;stroke-linecap:round;stroke-linejoin:round"
         d="m 63.994214,73.540905 -7.564388,8.370114 5.309496,9.498532 12.240557,-13.544362 z"
         sodipodi:nodetypes="ccccc" />
    </g>
    <path
       id="path20"
       style="stroke:#000000;stroke-width:7.23487;stroke-linecap:round;stroke-linejoin:round"
       d="M 98.671497,85.176713 A 40.229115,40.229115 0 0 0 58.442428,125.40578 40.229115,40.229115 0 0 0 98.671497,165.63485 40.229115,40.229115 0 0 0 138.90057,125.40578 40.229115,40.229115 0 0 0 98.671497,85.176713 Z m 0,10.274825 A 29.954157,29.954157 0 0 1 128.62574,125.40578 29.954157,29.954157 0 0 1 98.671497,155.35951 29.954157,29.954157 0 0 1 68.717253,125.40578 29.954157,29.954157 0 0 1 98.671497,95.451538 Z" />
  </g>
</svg>
